<svg width="1920" height="1080" viewBox="0 0 1920 1080" fill="none" xmlns="http://www.w3.org/2000/svg">
<g style="mix-blend-mode:exclusion" opacity="0.72">
<path d="M28.2474 81.4052C22.312 101.846 40.453 121.173 61.2285 116.542L665.431 -18.1335C693.872 -24.473 711.872 11.4392 689.772 30.4314L226.383 428.665C217.96 435.904 214.611 447.437 217.848 458.061L399.977 1055.82C406.954 1078.72 383.842 1099.24 361.928 1089.61L-492.511 714.119C-503.236 709.406 -509.893 698.513 -509.196 686.818L-467.796 -7.14143C-467.324 -15.0518 -463.523 -22.3918 -457.334 -27.3411L147.217 -510.825C168.564 -527.897 199.217 -507.4 191.594 -481.15L28.2474 81.4052Z" fill="url(#paint0_linear_92_2)"/>
</g>
<g style="mix-blend-mode:exclusion" opacity="0.72">
<path d="M878.326 500.95C884.753 484.326 904.87 477.859 919.781 487.623L1287.08 728.141C1292.53 731.711 1296.57 737.073 1298.49 743.3L1488.92 1359.63C1491.46 1367.87 1490.07 1376.83 1485.13 1383.91L1262.22 1703.36C1251.05 1719.37 1227.33 1719.32 1216.23 1703.26L892.527 1235.02C890.427 1231.98 888.948 1228.56 888.177 1224.95L786.802 750.335C785.664 745.01 786.104 739.468 788.068 734.389L878.326 500.95Z" fill="url(#paint1_linear_92_2)"/>
</g>
<g style="mix-blend-mode:exclusion" opacity="0.72">
<path d="M1704.3 724.35C1705.34 711.851 1697.94 700.186 1686.19 695.801L835.469 378.306C811.413 369.328 811.119 335.409 835.015 326.015L2114.44 -176.963C2135.71 -185.322 2157.49 -166.07 2151.81 -143.941L2049.41 254.826C2046.36 266.691 2051.38 279.159 2061.8 285.603L2803.15 744.14C2823.94 756.998 2819.42 788.454 2795.86 794.947L1711.41 1093.75C1692.64 1098.92 1674.46 1083.83 1676.07 1064.43L1704.3 724.35Z" fill="url(#paint2_linear_92_2)"/>
</g>
<defs>
<linearGradient id="paint0_linear_92_2" x1="524.915" y1="-76.3687" x2="-439.022" y2="599.167" gradientUnits="userSpaceOnUse">
<stop offset="0.11" stop-color="#C69BCA"/>
<stop offset="1" stop-color="#9B7F70"/>
</linearGradient>
<linearGradient id="paint1_linear_92_2" x1="1472.66" y1="1074.76" x2="810.787" y2="1119.85" gradientUnits="userSpaceOnUse">
<stop stop-color="#CBF7F4"/>
<stop offset="1" stop-color="#7D9C6F"/>
</linearGradient>
<linearGradient id="paint2_linear_92_2" x1="1068.14" y1="1059.3" x2="2696.74" y2="690.853" gradientUnits="userSpaceOnUse">
<stop stop-color="#B6E4FF"/>
<stop offset="0.573" stop-color="#A098D5"/>
</linearGradient>
</defs>
</svg>
