<svg width="700" height="1080" viewBox="0 0 700 1080" fill="none" xmlns="http://www.w3.org/2000/svg">
<g style="mix-blend-mode:exclusion" opacity="0.72">
<path d="M28.2469 81.4052C22.3115 101.846 40.4525 121.173 61.228 116.542L665.43 -18.1335C693.871 -24.473 711.871 11.4392 689.772 30.4314L226.383 428.665C217.959 435.904 214.611 447.437 217.848 458.061L399.976 1055.82C406.953 1078.72 383.842 1099.24 361.927 1089.61L-492.511 714.119C-503.237 709.406 -509.894 698.513 -509.196 686.818L-467.797 -7.14143C-467.325 -15.0518 -463.523 -22.3918 -457.334 -27.3411L147.216 -510.825C168.564 -527.897 199.216 -507.4 191.594 -481.15L28.2469 81.4052Z" fill="url(#paint0_linear_3_52)"/>
</g>
<defs>
<linearGradient id="paint0_linear_3_52" x1="524.914" y1="-76.3687" x2="-439.022" y2="599.167" gradientUnits="userSpaceOnUse">
<stop offset="0.11" stop-color="#C69BCA"/>
<stop offset="1" stop-color="#9B7F70"/>
</linearGradient>
</defs>
</svg>
